<?xml version="1.0" encoding="UTF-8" standalone="no"?><!DOCTYPE svg PUBLIC "-//W3C//DTD SVG 1.1//EN" "http://www.w3.org/Graphics/SVG/1.1/DTD/svg11.dtd"><svg width="100%" height="100%" viewBox="0 0 801 771" version="1.1" xmlns="http://www.w3.org/2000/svg" xmlns:xlink="http://www.w3.org/1999/xlink" xml:space="preserve" xmlns:serif="http://www.serif.com/" style="fill-rule:evenodd;clip-rule:evenodd;stroke-linejoin:round;stroke-miterlimit:2;"><g id="LOGO"><path d="M786.84,305.041l-1.125,-2.875l-108.916,-284.25c-2.216,-5.57 -6.141,-10.297 -11.209,-13.5c-10.364,-6.434 -23.718,-5.716 -33.333,1.792c-4.652,3.779 -8.028,8.901 -9.667,14.667l-73.541,225l-297.792,-0l-73.542,-225c-1.594,-5.797 -4.978,-10.945 -9.666,-14.709c-9.615,-7.507 -22.969,-8.225 -33.334,-1.791c-5.056,3.215 -8.977,7.938 -11.208,13.5l-109.125,284.125l-1.083,2.875c-32.116,83.913 -4.644,179.638 67.083,233.75l0.375,0.291l1,0.709l165.917,124.25l82.083,62.125l50,37.75c11.983,9.098 28.684,9.098 40.667,-0l50,-37.75l82.083,-62.125l166.917,-125l0.416,-0.334c71.561,-54.118 98.98,-149.672 67,-233.5Z" style="fill:#e24329;fill-rule:nonzero;"/><path d="M786.84,305.041l-1.125,-2.875c-53.069,10.893 -103.083,33.375 -146.458,65.834l-239.208,180.875c81.458,61.625 152.375,115.166 152.375,115.166l166.916,-125l0.417,-0.333c71.666,-54.118 99.128,-149.775 67.083,-233.667Z" style="fill:#fc6d26;fill-rule:nonzero;"/><path d="M247.674,664.041l82.083,62.125l50,37.75c11.983,9.099 28.684,9.099 40.667,0l50,-37.75l82.083,-62.125c0,0 -71,-53.708 -152.458,-115.166c-81.459,61.458 -152.375,115.166 -152.375,115.166Z" style="fill:#fca326;fill-rule:nonzero;"/><path d="M160.799,368c-43.34,-32.526 -93.344,-55.066 -146.417,-66l-1.083,2.875c-32.116,83.913 -4.644,179.638 67.083,233.75l0.375,0.291l1,0.709l165.917,124.25c-0,-0 70.833,-53.542 152.375,-115.167l-239.25,-180.708Z" style="fill:#fc6d26;fill-rule:nonzero;"/></g></svg>