<?xml version="1.0" encoding="UTF-8" standalone="no"?><!DOCTYPE svg PUBLIC "-//W3C//DTD SVG 1.1//EN" "http://www.w3.org/Graphics/SVG/1.1/DTD/svg11.dtd"><svg width="100%" height="100%" viewBox="0 0 375 383" version="1.1" xmlns="http://www.w3.org/2000/svg" xmlns:xlink="http://www.w3.org/1999/xlink" xml:space="preserve" xmlns:serif="http://www.serif.com/" style="fill-rule:evenodd;clip-rule:evenodd;stroke-linejoin:round;stroke-miterlimit:2;"><g><path d="M374.896,195.841c-0,-12.917 -1.25,-26.25 -3.334,-38.75l-180.416,-0l-0,73.75l103.333,-0c-4.167,23.75 -17.917,44.583 -38.333,57.916l61.666,47.917c36.25,-33.75 57.084,-82.917 57.084,-140.833Z" style="fill:#4280ef;fill-rule:nonzero;"/><path d="M191.146,382.507c51.666,0 95,-17.083 126.666,-46.25l-61.666,-47.5c-17.084,11.667 -39.167,18.334 -65,18.334c-50,-0 -92.084,-33.75 -107.5,-78.75l-63.334,48.75c32.5,64.583 98.334,105.416 170.834,105.416Z" style="fill:#34a353;fill-rule:nonzero;"/><path d="M83.646,227.924c-7.917,-23.75 -7.917,-49.583 -0,-73.333l-63.334,-49.167c-27.083,54.167 -27.083,117.917 0,171.667l63.334,-49.167Z" style="fill:#f6b704;fill-rule:nonzero;"/><path d="M191.146,75.841c27.083,-0.417 53.75,10 73.333,28.75l54.583,-55c-34.583,-32.5 -80.416,-50 -127.916,-49.584c-72.5,0 -138.334,40.834 -170.834,105.417l63.334,49.167c15.416,-45.417 57.5,-78.75 107.5,-78.75Z" style="fill:#e54335;fill-rule:nonzero;"/></g></svg>